<?xml version="1.0" standalone="no"?><!DOCTYPE svg PUBLIC "-//W3C//DTD SVG 1.1//EN" "http://www.w3.org/Graphics/SVG/1.1/DTD/svg11.dtd"><svg t="1679367216639" class="icon" viewBox="0 0 1030 1024" version="1.1" xmlns="http://www.w3.org/2000/svg" p-id="1696" xmlns:xlink="http://www.w3.org/1999/xlink" width="201.171875" height="200"><path d="M252.479711 385.587015v293.958522l258.791705 146.528403 258.791704-146.528403V385.587015l-251.127142-145.62669L252.479711 385.587015z" fill="#036EB8" opacity=".1" p-id="1697"></path><path d="M778.629396 405.875564A20.739405 20.739405 0 0 1 766.456267 405.875564l-39.675383-21.641119a22.091975 22.091975 0 0 1 21.190261-39.224526l39.675383 21.190261a22.542831 22.542831 0 0 1-10.820559 42.380523z m-518.485122-6.76285a22.542831 22.542831 0 0 1-19.837691-12.173129 22.091975 22.091975 0 0 1 9.918845-30.207394l40.12624-20.739405a22.993688 22.993688 0 0 1 30.207394 9.918846 22.542831 22.542831 0 0 1-9.918846 30.207394L270.513977 396.858431a20.739405 20.739405 0 0 1-10.369703 2.254283z m399.909829-57.258792a22.542831 22.542831 0 0 1-10.820559-2.705139l-39.675383-21.190262a22.993688 22.993688 0 0 1-9.017133-30.65825 22.091975 22.091975 0 0 1 30.207394-9.017133l39.675383 21.190261a22.542831 22.542831 0 0 1-10.369702 42.380523z m-279.531109-4.057709a22.542831 22.542831 0 0 1-9.918846-45.085663l40.12624-20.288548a22.542831 22.542831 0 0 1 30.207394 9.467989 22.993688 22.993688 0 0 1-9.918846 33.814247l-40.12624 20.288548a20.739405 20.739405 0 0 1-10.369702 1.803427zM541.027953 277.381425a19.386835 19.386835 0 0 1-10.820559-2.70514L519.837692 270.618575l-8.566276 4.508567a22.542831 22.542831 0 0 1-20.288549-40.577097l18.935979-9.017132a23.895401 23.895401 0 0 1 20.739405 0l21.190261 11.722272a22.091975 22.091975 0 0 1 9.017133 30.207394 22.091975 22.091975 0 0 1-19.837692 9.918846z" fill="#036EB8" p-id="1698"></path><path d="M1002.70514 289.554554a24.346258 24.346258 0 0 1-9.918846 0L513.074842 47.895401 33.814247 287.300271a22.542831 22.542831 0 0 1-30.207394-10.369703 22.993688 22.993688 0 0 1 9.918846-30.207394L503.155996 2.358882a22.993688 22.993688 0 0 1 20.288549 0l489.179441 244.364292a22.542831 22.542831 0 0 1-9.918846 45.085663z" fill="#3E3A39" p-id="1699"></path><path d="M45.085663 762.052299a22.542831 22.542831 0 0 1-9.918846-40.577096l81.154193-39.675383A22.542831 22.542831 0 0 1 135.256988 721.475203l-81.154193 39.675383a24.346258 24.346258 0 0 1-9.017132 0.901713z m889.540126-14.427412a24.346258 24.346258 0 0 1-9.918846 0l-80.703336-40.577096a22.542831 22.542831 0 0 1-10.369703-30.207394 22.091975 22.091975 0 0 1 30.207394-9.918846l80.703337 40.12624a22.542831 22.542831 0 0 1-9.918846 42.831379zM206.943192 683.15239a23.444545 23.444545 0 0 1-20.288548-12.623986 22.993688 22.993688 0 0 1 10.369702-30.207394l81.154193-39.675383a22.993688 22.993688 0 0 1 30.207394 10.369702 22.542831 22.542831 0 0 1-10.369702 30.207394l-81.154193 39.675383a24.346258 24.346258 0 0 1-9.918846 2.254284z m566.275924-16.230839a26.600541 26.600541 0 0 1-9.918845 0l-80.703337-40.577097a22.091975 22.091975 0 0 1-9.918846-30.207394 22.542831 22.542831 0 0 1 30.207394-9.918845l80.703337 40.126239a22.993688 22.993688 0 0 1 9.918846 30.207395 22.542831 22.542831 0 0 1-20.288549 10.369702z m-405.770965-62.669071a22.091975 22.091975 0 0 1-20.288548-12.623986 22.542831 22.542831 0 0 1 13.525699-30.207394l81.154193-39.224527a22.542831 22.542831 0 0 1 30.207394 10.369703 22.091975 22.091975 0 0 1-10.369702 29.756537l-81.154193 39.675384a26.600541 26.600541 0 0 1-11.271416 2.254283z m242.560866-18.034265a19.837692 19.837692 0 0 1-9.918846-2.254284l-80.703336-40.577096a22.091975 22.091975 0 0 1-9.918846-30.207394 22.542831 22.542831 0 0 1 30.207394-9.918846l80.703337 40.12624a23.444545 23.444545 0 0 1 9.918845 30.658251 22.542831 22.542831 0 0 1-18.485121 12.173129z" fill="#036EB8" p-id="1700"></path><path d="M512.173129 1024a24.346258 24.346258 0 0 1-9.918846-2.254283L12.623986 783.242561a22.993688 22.993688 0 0 1-12.623986-20.288548V273.774572a23.444545 23.444545 0 0 1 10.820559-19.386835 21.641118 21.641118 0 0 1 21.641118 0l479.711452 238.954012L991.884581 253.486023a21.641118 21.641118 0 0 1 21.641118 0 23.444545 23.444545 0 0 1 10.820559 19.386835v490.081155a22.993688 22.993688 0 0 1-12.623986 20.288548l-490.081154 238.503156a22.542831 22.542831 0 0 1-9.467989 2.254283zM45.085663 748.526601l467.087466 225.428313 467.087466-225.428313V310.293959l-454.914337 225.428313a22.542831 22.542831 0 0 1-22.091975 0L45.085663 310.293959z" fill="#3E3A39" p-id="1701"></path><path d="M511.722272 1020.393147a22.542831 22.542831 0 0 1-22.542831-22.542831V526.254283a22.542831 22.542831 0 0 1 45.085663 0v471.596033a22.542831 22.542831 0 0 1-22.542832 22.542831z" fill="#3E3A39" p-id="1702"></path><path d="M512.623986 841.853922a18.935978 18.935978 0 0 1-9.918846-2.254283l-266.005411-128.043282a22.091975 22.091975 0 0 1-11.271415-20.288548V383.783589a22.542831 22.542831 0 0 1 22.542831-22.542832 22.542831 22.542831 0 0 1 22.542832 22.542832V676.38954l243.913435 117.222723 243.462579-117.222723V383.783589a22.542831 22.542831 0 0 1 22.542831-22.542832 22.542831 22.542831 0 0 1 22.542832 22.542832v307.48422a22.542831 22.542831 0 0 1-12.623986 20.288548l-266.00541 128.043282a19.837692 19.837692 0 0 1-11.722272 2.254283z" fill="#3E3A39" p-id="1703"></path></svg>